<svg xmlns="http://www.w3.org/2000/svg" version="1.1" xmlns:xlink="http://www.w3.org/1999/xlink" xmlns:svgjs="http://svgjs.dev/svgjs" width="2000" height="1247" viewBox="0 0 2000 1247"><g transform="matrix(1,0,0,1,-1.2121212121212466,0.504858299595071)"><svg viewBox="0 0 396 247" data-background-color="#ffffff" preserveAspectRatio="xMidYMid meet" height="1247" width="2000" xmlns="http://www.w3.org/2000/svg" xmlns:xlink="http://www.w3.org/1999/xlink"><g id="tight-bounds" transform="matrix(1,0,0,1,0.2400000000000091,-0.09999999999999432)"><svg viewBox="0 0 395.52 247.2" height="247.2" width="395.52"><rect width="395.52" height="247.2" fill="url(#499fddc0-b22c-46c5-95a5-5070e76ab99d)" mask="url(#acee4d0f-a404-432f-a322-b64d8638c466)" data-fill-palette-color="tertiary"></rect><g><svg></svg></g><g><svg viewBox="0 0 395.52 247.2" height="247.2" width="395.52"><g transform="matrix(1,0,0,1,136.66281338912134,47.215199999999996)"><svg viewBox="0 0 122.1943732217573 152.7696" height="152.7696" width="122.1943732217573"><g><svg viewBox="0 0 122.1943732217573 152.7696" height="152.7696" width="122.1943732217573"><g><svg viewBox="0 0 122.19437322175733 152.76960000000003" height="152.7696" width="122.1943732217573"><g><svg viewBox="0 0 122.19437322175733 152.76960000000003" height="152.76960000000003" width="122.19437322175733"><g id="textblocktransform"><svg viewBox="0 0 122.19437322175733 152.76960000000003" height="152.76960000000003" width="122.19437322175733" id="textblock"><g><svg viewBox="0 0 122.19437322175733 152.76960000000003" height="152.76960000000003" width="122.19437322175733"><g transform="matrix(1,0,0,1,0,0)"><svg width="122.19437322175733" viewBox="1.2 -35.01 28 35.01" height="152.76960000000003" data-palette-color="url(#3793cea8-8087-4c9a-8ac4-bf21d99f460f)"><g class="wordmark-text-0" data-fill-palette-color="primary" id="text-0"></g></svg></g></svg></g></svg></g></svg></g></svg></g></svg></g></svg></g><path d="M318.964 41.215L318.964 0 71.764 0 71.764 247.2 318.964 247.2 318.964 205.985 305.187 205.985 305.187 233.423 85.541 233.423 85.541 13.777 305.187 13.777 305.187 41.215Z" fill="url(#499fddc0-b22c-46c5-95a5-5070e76ab99d)" stroke="transparent" data-fill-palette-color="tertiary"></path></svg></g><defs></defs><mask id="5a1d3d67-c610-492e-a383-4c5d83941365"><g id="SvgjsG1612"><svg viewBox="0 0 395.52 247.2" height="247.2" width="395.52"><g><svg></svg></g><g><svg viewBox="0 0 395.52 247.2" height="247.2" width="395.52"><g transform="matrix(1,0,0,1,136.66281338912134,47.215199999999996)"><svg viewBox="0 0 122.1943732217573 152.7696" height="152.7696" width="122.1943732217573"><g><svg viewBox="0 0 122.1943732217573 152.7696" height="152.7696" width="122.1943732217573"><g><svg viewBox="0 0 122.19437322175733 152.76960000000003" height="152.7696" width="122.1943732217573"><g><svg viewBox="0 0 122.19437322175733 152.76960000000003" height="152.76960000000003" width="122.19437322175733"><g id="SvgjsG1611"><svg viewBox="0 0 122.19437322175733 152.76960000000003" height="152.76960000000003" width="122.19437322175733" id="SvgjsSvg1610"><g><svg viewBox="0 0 122.19437322175733 152.76960000000003" height="152.76960000000003" width="122.19437322175733"><g transform="matrix(1,0,0,1,0,0)"><svg width="122.19437322175733" viewBox="1.2 -35.01 28 35.01" height="152.76960000000003" data-palette-color="url(#3793cea8-8087-4c9a-8ac4-bf21d99f460f)"><g class="wordmark-text-0" data-fill-palette-color="primary" id="SvgjsG1609"><path d="M1.2-24.51L1.2-24.51Q1.2-26.68 2.03-28.59 2.86-30.49 4.28-31.92 5.71-33.35 7.62-34.18 9.52-35.01 11.69-35.01L11.69-35.01 27.76-35.01 27.76-28 11.69-28Q10.96-28 10.33-27.73 9.69-27.47 9.22-26.99 8.74-26.51 8.47-25.88 8.2-25.24 8.2-24.51L8.2-24.51Q8.2-23.78 8.47-23.13 8.74-22.49 9.22-22.01 9.69-21.53 10.33-21.26 10.96-21 11.69-21L11.69-21 18.7-21Q20.87-21 22.79-20.18 24.71-19.36 26.14-17.93 27.56-16.5 28.38-14.59 29.2-12.67 29.2-10.5L29.2-10.5Q29.2-8.33 28.38-6.42 27.56-4.52 26.14-3.09 24.71-1.66 22.79-0.83 20.87 0 18.7 0L18.7 0 3.15 0 3.15-7.01 18.7-7.01Q19.43-7.01 20.07-7.28 20.7-7.54 21.18-8.02 21.66-8.5 21.92-9.13 22.19-9.77 22.19-10.5L22.19-10.5Q22.19-11.23 21.92-11.87 21.66-12.5 21.18-12.98 20.7-13.45 20.07-13.72 19.43-13.99 18.7-13.99L18.7-13.99 11.69-13.99Q9.52-13.99 7.62-14.82 5.71-15.65 4.28-17.08 2.86-18.51 2.03-20.42 1.2-22.34 1.2-24.51Z" fill="white"></path></g></svg></g></svg></g></svg></g></svg></g></svg></g></svg></g></svg></g><path d="M318.964 41.215L318.964 0 71.764 0 71.764 247.2 318.964 247.2 318.964 205.985 305.187 205.985 305.187 233.423 85.541 233.423 85.541 13.777 305.187 13.777 305.187 41.215Z" fill="black" stroke="transparent"></path></svg></g><defs><mask></mask></defs></svg><rect width="395.52" height="247.2" fill="black" stroke="none" visibility="hidden"></rect></g></mask><linearGradient x1="0" x2="1" y1="0.5" y2="0.5" id="3793cea8-8087-4c9a-8ac4-bf21d99f460f"><stop stop-color="#f00b51" offset="0"></stop><stop stop-color="#730062" offset="1"></stop></linearGradient><rect width="395.52" height="247.2" fill="url(#3793cea8-8087-4c9a-8ac4-bf21d99f460f)" mask="url(#5a1d3d67-c610-492e-a383-4c5d83941365)" data-fill-palette-color="primary"></rect><mask id="acee4d0f-a404-432f-a322-b64d8638c466"><g id="SvgjsG1620"><svg viewBox="0 0 395.52 247.2" height="247.2" width="395.52"><g><svg></svg></g><g><svg viewBox="0 0 395.52 247.2" height="247.2" width="395.52"><g transform="matrix(1,0,0,1,136.66281338912134,47.215199999999996)"><svg viewBox="0 0 122.1943732217573 152.7696" height="152.7696" width="122.1943732217573"><g><svg viewBox="0 0 122.1943732217573 152.7696" height="152.7696" width="122.1943732217573"><g><svg viewBox="0 0 122.19437322175733 152.76960000000003" height="152.7696" width="122.1943732217573"><g><svg viewBox="0 0 122.19437322175733 152.76960000000003" height="152.76960000000003" width="122.19437322175733"><g id="SvgjsG1619"><svg viewBox="0 0 122.19437322175733 152.76960000000003" height="152.76960000000003" width="122.19437322175733" id="SvgjsSvg1618"><g><svg viewBox="0 0 122.19437322175733 152.76960000000003" height="152.76960000000003" width="122.19437322175733"><g transform="matrix(1,0,0,1,0,0)"><svg width="122.19437322175733" viewBox="1.2 -35.01 28 35.01" height="152.76960000000003" data-palette-color="url(#3793cea8-8087-4c9a-8ac4-bf21d99f460f)"><g class="wordmark-text-0" data-fill-palette-color="primary" id="SvgjsG1617"></g></svg></g></svg></g></svg></g></svg></g></svg></g></svg></g></svg></g><path d="M318.964 41.215L318.964 0 71.764 0 71.764 247.2 318.964 247.2 318.964 205.985 305.187 205.985 305.187 233.423 85.541 233.423 85.541 13.777 305.187 13.777 305.187 41.215Z" fill="white" stroke="transparent"></path></svg></g><defs><mask></mask></defs><mask><g id="SvgjsG1616"><svg viewBox="0 0 395.52 247.2" height="247.2" width="395.52"><g><svg></svg></g><g><svg viewBox="0 0 395.52 247.2" height="247.2" width="395.52"><g transform="matrix(1,0,0,1,136.66281338912134,47.215199999999996)"><svg viewBox="0 0 122.1943732217573 152.7696" height="152.7696" width="122.1943732217573"><g><svg viewBox="0 0 122.1943732217573 152.7696" height="152.7696" width="122.1943732217573"><g><svg viewBox="0 0 122.19437322175733 152.76960000000003" height="152.7696" width="122.1943732217573"><g><svg viewBox="0 0 122.19437322175733 152.76960000000003" height="152.76960000000003" width="122.19437322175733"><g id="SvgjsG1615"><svg viewBox="0 0 122.19437322175733 152.76960000000003" height="152.76960000000003" width="122.19437322175733" id="SvgjsSvg1614"><g><svg viewBox="0 0 122.19437322175733 152.76960000000003" height="152.76960000000003" width="122.19437322175733"><g transform="matrix(1,0,0,1,0,0)"><svg width="122.19437322175733" viewBox="1.2 -35.01 28 35.01" height="152.76960000000003" data-palette-color="url(#3793cea8-8087-4c9a-8ac4-bf21d99f460f)"><g class="wordmark-text-0" data-fill-palette-color="primary" id="SvgjsG1613"><path d="M1.2-24.51L1.2-24.51Q1.2-26.68 2.03-28.59 2.86-30.49 4.28-31.92 5.71-33.35 7.62-34.18 9.52-35.01 11.69-35.01L11.69-35.01 27.76-35.01 27.76-28 11.69-28Q10.96-28 10.33-27.73 9.69-27.47 9.22-26.99 8.74-26.51 8.47-25.88 8.2-25.24 8.2-24.51L8.2-24.51Q8.2-23.78 8.47-23.13 8.74-22.49 9.22-22.01 9.69-21.53 10.33-21.26 10.96-21 11.69-21L11.69-21 18.7-21Q20.87-21 22.79-20.18 24.71-19.36 26.14-17.93 27.56-16.5 28.38-14.59 29.2-12.67 29.2-10.5L29.2-10.5Q29.2-8.33 28.38-6.42 27.56-4.52 26.14-3.09 24.71-1.66 22.79-0.83 20.87 0 18.7 0L18.7 0 3.15 0 3.15-7.01 18.7-7.01Q19.43-7.01 20.07-7.28 20.7-7.54 21.18-8.02 21.66-8.5 21.92-9.13 22.19-9.77 22.19-10.5L22.19-10.5Q22.19-11.23 21.92-11.87 21.66-12.5 21.18-12.98 20.7-13.45 20.07-13.72 19.43-13.99 18.7-13.99L18.7-13.99 11.69-13.99Q9.52-13.99 7.62-14.82 5.71-15.65 4.28-17.08 2.86-18.51 2.03-20.42 1.2-22.34 1.2-24.51Z" fill="black"></path></g></svg></g></svg></g></svg></g></svg></g></svg></g></svg></g></svg></g><path d="M318.964 41.215L318.964 0 71.764 0 71.764 247.2 318.964 247.2 318.964 205.985 305.187 205.985 305.187 233.423 85.541 233.423 85.541 13.777 305.187 13.777 305.187 41.215Z" fill="black" stroke="transparent"></path></svg></g><defs><mask></mask></defs></svg><rect width="395.52" height="247.2" fill="black" stroke="none" visibility="hidden"></rect></g></mask></svg><rect width="395.52" height="247.2" fill="black" stroke="none" visibility="hidden"></rect></g></mask><linearGradient x1="0" x2="1" y1="0.5" y2="0.5" id="499fddc0-b22c-46c5-95a5-5070e76ab99d"><stop stop-color="#ffa62e" offset="0"></stop><stop stop-color="#f71b3d" offset="1"></stop></linearGradient></svg><rect width="395.52" height="247.2" fill="none" stroke="none" visibility="hidden"></rect></g></svg></g></svg>